<svg width="334" height="50" viewBox="0 0 334 50" fill="none" xmlns="http://www.w3.org/2000/svg">
<rect width="334" height="50" fill="url(#paint0_linear_205_6)"/>
<path d="M20.592 29.832H25.968V33H16.488V16.152H20.592V29.832ZM35.9895 18.216C35.2695 18.216 34.6775 18.008 34.2135 17.592C33.7655 17.16 33.5415 16.632 33.5415 16.008C33.5415 15.368 33.7655 14.84 34.2135 14.424C34.6775 13.992 35.2695 13.776 35.9895 13.776C36.6935 13.776 37.2695 13.992 37.7175 14.424C38.1815 14.84 38.4135 15.368 38.4135 16.008C38.4135 16.632 38.1815 17.16 37.7175 17.592C37.2695 18.008 36.6935 18.216 35.9895 18.216ZM38.0295 19.608V33H33.9255V19.608H38.0295ZM55.1636 19.464C56.7316 19.464 57.9796 19.976 58.9076 21C59.8516 22.008 60.3236 23.4 60.3236 25.176V33H56.2436V25.728C56.2436 24.832 56.0116 24.136 55.5476 23.64C55.0836 23.144 54.4596 22.896 53.6756 22.896C52.8916 22.896 52.2676 23.144 51.8036 23.64C51.3396 24.136 51.1076 24.832 51.1076 25.728V33H47.0036V19.608H51.1076V21.384C51.5236 20.792 52.0836 20.328 52.7876 19.992C53.4916 19.64 54.2836 19.464 55.1636 19.464ZM74.2635 19.416C75.2075 19.416 76.0315 19.608 76.7355 19.992C77.4555 20.376 78.0075 20.88 78.3915 21.504V19.608H82.4955V32.976C82.4955 34.208 82.2475 35.32 81.7515 36.312C81.2715 37.32 80.5275 38.12 79.5195 38.712C78.5275 39.304 77.2875 39.6 75.7995 39.6C73.8155 39.6 72.2075 39.128 70.9755 38.184C69.7435 37.256 69.0395 35.992 68.8635 34.392H72.9195C73.0475 34.904 73.3515 35.304 73.8315 35.592C74.3115 35.896 74.9035 36.048 75.6075 36.048C76.4555 36.048 77.1275 35.8 77.6235 35.304C78.1355 34.824 78.3915 34.048 78.3915 32.976V31.08C77.9915 31.704 77.4395 32.216 76.7355 32.616C76.0315 33 75.2075 33.192 74.2635 33.192C73.1595 33.192 72.1595 32.912 71.2635 32.352C70.3675 31.776 69.6555 30.968 69.1275 29.928C68.6155 28.872 68.3595 27.656 68.3595 26.28C68.3595 24.904 68.6155 23.696 69.1275 22.656C69.6555 21.616 70.3675 20.816 71.2635 20.256C72.1595 19.696 73.1595 19.416 74.2635 19.416ZM78.3915 26.304C78.3915 25.28 78.1035 24.472 77.5275 23.88C76.9675 23.288 76.2795 22.992 75.4635 22.992C74.6475 22.992 73.9515 23.288 73.3755 23.88C72.8155 24.456 72.5355 25.256 72.5355 26.28C72.5355 27.304 72.8155 28.12 73.3755 28.728C73.9515 29.32 74.6475 29.616 75.4635 29.616C76.2795 29.616 76.9675 29.32 77.5275 28.728C78.1035 28.136 78.3915 27.328 78.3915 26.304ZM104.689 19.608V33H100.585V31.176C100.169 31.768 99.6006 32.248 98.8806 32.616C98.1766 32.968 97.3926 33.144 96.5286 33.144C95.5046 33.144 94.6006 32.92 93.8166 32.472C93.0326 32.008 92.4246 31.344 91.9926 30.48C91.5606 29.616 91.3446 28.6 91.3446 27.432V19.608H95.4246V26.88C95.4246 27.776 95.6566 28.472 96.1206 28.968C96.5846 29.464 97.2086 29.712 97.9926 29.712C98.7926 29.712 99.4246 29.464 99.8886 28.968C100.353 28.472 100.585 27.776 100.585 26.88V19.608H104.689ZM112.82 26.28C112.82 24.904 113.076 23.696 113.588 22.656C114.116 21.616 114.828 20.816 115.724 20.256C116.62 19.696 117.62 19.416 118.724 19.416C119.668 19.416 120.492 19.608 121.196 19.992C121.916 20.376 122.468 20.88 122.852 21.504V19.608H126.956V33H122.852V31.104C122.452 31.728 121.892 32.232 121.172 32.616C120.468 33 119.644 33.192 118.7 33.192C117.612 33.192 116.62 32.912 115.724 32.352C114.828 31.776 114.116 30.968 113.588 29.928C113.076 28.872 112.82 27.656 112.82 26.28ZM122.852 26.304C122.852 25.28 122.564 24.472 121.988 23.88C121.428 23.288 120.74 22.992 119.924 22.992C119.108 22.992 118.412 23.288 117.836 23.88C117.276 24.456 116.996 25.256 116.996 26.28C116.996 27.304 117.276 28.12 117.836 28.728C118.412 29.32 119.108 29.616 119.924 29.616C120.74 29.616 121.428 29.32 121.988 28.728C122.564 28.136 122.852 27.328 122.852 26.304ZM141.014 19.416C141.958 19.416 142.782 19.608 143.486 19.992C144.206 20.376 144.758 20.88 145.142 21.504V19.608H149.246V32.976C149.246 34.208 148.998 35.32 148.502 36.312C148.022 37.32 147.278 38.12 146.27 38.712C145.278 39.304 144.038 39.6 142.55 39.6C140.566 39.6 138.958 39.128 137.726 38.184C136.494 37.256 135.79 35.992 135.614 34.392H139.67C139.798 34.904 140.102 35.304 140.582 35.592C141.062 35.896 141.654 36.048 142.358 36.048C143.206 36.048 143.878 35.8 144.374 35.304C144.886 34.824 145.142 34.048 145.142 32.976V31.08C144.742 31.704 144.19 32.216 143.486 32.616C142.782 33 141.958 33.192 141.014 33.192C139.91 33.192 138.91 32.912 138.014 32.352C137.118 31.776 136.406 30.968 135.878 29.928C135.366 28.872 135.11 27.656 135.11 26.28C135.11 24.904 135.366 23.696 135.878 22.656C136.406 21.616 137.118 20.816 138.014 20.256C138.91 19.696 139.91 19.416 141.014 19.416ZM145.142 26.304C145.142 25.28 144.854 24.472 144.278 23.88C143.718 23.288 143.03 22.992 142.214 22.992C141.398 22.992 140.702 23.288 140.126 23.88C139.566 24.456 139.286 25.256 139.286 26.28C139.286 27.304 139.566 28.12 140.126 28.728C140.702 29.32 141.398 29.616 142.214 29.616C143.03 29.616 143.718 29.32 144.278 28.728C144.854 28.136 145.142 27.328 145.142 26.304ZM170.839 26.088C170.839 26.472 170.815 26.872 170.767 27.288H161.479C161.543 28.12 161.807 28.76 162.271 29.208C162.751 29.64 163.335 29.856 164.023 29.856C165.047 29.856 165.759 29.424 166.159 28.56H170.527C170.303 29.44 169.895 30.232 169.303 30.936C168.727 31.64 167.999 32.192 167.119 32.592C166.239 32.992 165.255 33.192 164.167 33.192C162.855 33.192 161.687 32.912 160.663 32.352C159.639 31.792 158.839 30.992 158.263 29.952C157.687 28.912 157.399 27.696 157.399 26.304C157.399 24.912 157.679 23.696 158.239 22.656C158.815 21.616 159.615 20.816 160.639 20.256C161.663 19.696 162.839 19.416 164.167 19.416C165.463 19.416 166.615 19.688 167.623 20.232C168.631 20.776 169.415 21.552 169.975 22.56C170.551 23.568 170.839 24.744 170.839 26.088ZM166.639 25.008C166.639 24.304 166.399 23.744 165.919 23.328C165.439 22.912 164.839 22.704 164.119 22.704C163.431 22.704 162.847 22.904 162.367 23.304C161.903 23.704 161.615 24.272 161.503 25.008H166.639ZM187.164 19.464C188.732 19.464 189.98 19.976 190.908 21C191.852 22.008 192.324 23.4 192.324 25.176V33H188.244V25.728C188.244 24.832 188.012 24.136 187.548 23.64C187.084 23.144 186.46 22.896 185.676 22.896C184.892 22.896 184.268 23.144 183.804 23.64C183.34 24.136 183.108 24.832 183.108 25.728V33H179.004V19.608H183.108V21.384C183.524 20.792 184.084 20.328 184.788 19.992C185.492 19.64 186.284 19.464 187.164 19.464ZM206.624 33.192C205.456 33.192 204.416 32.992 203.504 32.592C202.592 32.192 201.872 31.648 201.344 30.96C200.816 30.256 200.52 29.472 200.456 28.608H204.512C204.56 29.072 204.776 29.448 205.16 29.736C205.544 30.024 206.016 30.168 206.576 30.168C207.088 30.168 207.48 30.072 207.752 29.88C208.04 29.672 208.184 29.408 208.184 29.088C208.184 28.704 207.984 28.424 207.584 28.248C207.184 28.056 206.536 27.848 205.64 27.624C204.68 27.4 203.88 27.168 203.24 26.928C202.6 26.672 202.048 26.28 201.584 25.752C201.12 25.208 200.888 24.48 200.888 23.568C200.888 22.8 201.096 22.104 201.512 21.48C201.944 20.84 202.568 20.336 203.384 19.968C204.216 19.6 205.2 19.416 206.336 19.416C208.016 19.416 209.336 19.832 210.296 20.664C211.272 21.496 211.832 22.6 211.976 23.976H208.184C208.12 23.512 207.912 23.144 207.56 22.872C207.224 22.6 206.776 22.464 206.216 22.464C205.736 22.464 205.368 22.56 205.112 22.752C204.856 22.928 204.728 23.176 204.728 23.496C204.728 23.88 204.928 24.168 205.328 24.36C205.744 24.552 206.384 24.744 207.248 24.936C208.24 25.192 209.048 25.448 209.672 25.704C210.296 25.944 210.84 26.344 211.304 26.904C211.784 27.448 212.032 28.184 212.048 29.112C212.048 29.896 211.824 30.6 211.376 31.224C210.944 31.832 210.312 32.312 209.48 32.664C208.664 33.016 207.712 33.192 206.624 33.192Z" fill="white"/>
<defs>
<linearGradient id="paint0_linear_205_6" x1="334" y1="25" x2="1.50111e-06" y2="25" gradientUnits="userSpaceOnUse">
<stop stop-color="#181818" stop-opacity="0"/>
<stop offset="1" stop-color="#FF0000" stop-opacity="0.5"/>
</linearGradient>
</defs>
</svg>
