<svg width="446" height="616" viewBox="0 0 446 616" fill="none" xmlns="http://www.w3.org/2000/svg">
<path d="M216.815 221L0 390.126L225.93 556L446 375.165L216.815 221Z" fill="#292929"/>
<g filter="url(#filter0_d_202_4)">
<path d="M218.5 260L52 390L225.5 517.5L394.5 378.5L218.5 260Z" fill="#281B1B"/>
<path d="M218.5 260L52 390L225.5 517.5L394.5 378.5L218.5 260Z" stroke="white"/>
</g>
<path d="M226 616V556L446 375V435L226 616Z" fill="#242424"/>
<path d="M226 616V556L0 390V450L226 616Z" fill="#3A3A3A"/>
<g filter="url(#filter1_d_202_4)">
<path d="M281.295 316.081L237.345 423.588L178.966 390.538L281.295 316.081Z" fill="#281B1B"/>
<path d="M180.748 390.413L279.027 318.903L236.816 422.154L180.748 390.413Z" stroke="white" stroke-width="2"/>
</g>
<g filter="url(#filter2_d_202_4)">
<path d="M164.784 462.017L172.577 399.142L231.092 432.021L164.784 462.017Z" fill="#281B1B"/>
<path d="M228.975 431.964L166.052 460.428L173.447 400.763L228.975 431.964Z" stroke="white" stroke-width="2"/>
</g>
<path d="M224 60.5L47.5 0.5L53 390L225 519L224 60.5Z" fill="url(#paint0_linear_202_4)"/>
<path d="M225 60.5L402 1L396.5 377.5L225 519V60.5Z" fill="url(#paint1_linear_202_4)"/>
<defs>
<filter id="filter0_d_202_4" x="31.1721" y="239.383" width="384.164" height="298.751" filterUnits="userSpaceOnUse" color-interpolation-filters="sRGB">
<feFlood flood-opacity="0" result="BackgroundImageFix"/>
<feColorMatrix in="SourceAlpha" type="matrix" values="0 0 0 0 0 0 0 0 0 0 0 0 0 0 0 0 0 0 127 0" result="hardAlpha"/>
<feOffset/>
<feGaussianBlur stdDeviation="10"/>
<feComposite in2="hardAlpha" operator="out"/>
<feColorMatrix type="matrix" values="0 0 0 0 1 0 0 0 0 0 0 0 0 0 0 0 0 0 0.55 0"/>
<feBlend mode="normal" in2="BackgroundImageFix" result="effect1_dropShadow_202_4"/>
<feBlend mode="normal" in="SourceGraphic" in2="effect1_dropShadow_202_4" result="shape"/>
</filter>
<filter id="filter1_d_202_4" x="78.9661" y="216.081" width="302.329" height="307.507" filterUnits="userSpaceOnUse" color-interpolation-filters="sRGB">
<feFlood flood-opacity="0" result="BackgroundImageFix"/>
<feColorMatrix in="SourceAlpha" type="matrix" values="0 0 0 0 0 0 0 0 0 0 0 0 0 0 0 0 0 0 127 0" result="hardAlpha"/>
<feOffset/>
<feGaussianBlur stdDeviation="50"/>
<feComposite in2="hardAlpha" operator="out"/>
<feColorMatrix type="matrix" values="0 0 0 0 1 0 0 0 0 0 0 0 0 0 0 0 0 0 1 0"/>
<feBlend mode="normal" in2="BackgroundImageFix" result="effect1_dropShadow_202_4"/>
<feBlend mode="normal" in="SourceGraphic" in2="effect1_dropShadow_202_4" result="shape"/>
</filter>
<filter id="filter2_d_202_4" x="64.7837" y="299.142" width="266.308" height="262.875" filterUnits="userSpaceOnUse" color-interpolation-filters="sRGB">
<feFlood flood-opacity="0" result="BackgroundImageFix"/>
<feColorMatrix in="SourceAlpha" type="matrix" values="0 0 0 0 0 0 0 0 0 0 0 0 0 0 0 0 0 0 127 0" result="hardAlpha"/>
<feOffset/>
<feGaussianBlur stdDeviation="50"/>
<feComposite in2="hardAlpha" operator="out"/>
<feColorMatrix type="matrix" values="0 0 0 0 1 0 0 0 0 0 0 0 0 0 0 0 0 0 1 0"/>
<feBlend mode="normal" in2="BackgroundImageFix" result="effect1_dropShadow_202_4"/>
<feBlend mode="normal" in="SourceGraphic" in2="effect1_dropShadow_202_4" result="shape"/>
</filter>
<linearGradient id="paint0_linear_202_4" x1="136.25" y1="0.5" x2="136.25" y2="519" gradientUnits="userSpaceOnUse">
<stop stop-color="#292929" stop-opacity="0"/>
<stop offset="1" stop-color="#FF0000" stop-opacity="0.5"/>
</linearGradient>
<linearGradient id="paint1_linear_202_4" x1="313.5" y1="1" x2="313.5" y2="519" gradientUnits="userSpaceOnUse">
<stop stop-color="#181818" stop-opacity="0"/>
<stop offset="1" stop-color="#FF0000" stop-opacity="0.5"/>
</linearGradient>
</defs>
</svg>
