<svg width="334" height="50" viewBox="0 0 334 50" fill="none" xmlns="http://www.w3.org/2000/svg">
<rect width="334" height="50" fill="url(#paint0_linear_205_7)"/>
<path d="M110.456 16.152V19.44H103.592V22.992H108.728V26.184H103.592V33H99.488V16.152H110.456ZM131.237 26.088C131.237 26.472 131.213 26.872 131.165 27.288H121.877C121.941 28.12 122.205 28.76 122.669 29.208C123.149 29.64 123.733 29.856 124.421 29.856C125.445 29.856 126.157 29.424 126.557 28.56H130.925C130.701 29.44 130.293 30.232 129.701 30.936C129.125 31.64 128.397 32.192 127.517 32.592C126.637 32.992 125.653 33.192 124.565 33.192C123.253 33.192 122.085 32.912 121.061 32.352C120.037 31.792 119.237 30.992 118.661 29.952C118.085 28.912 117.797 27.696 117.797 26.304C117.797 24.912 118.077 23.696 118.637 22.656C119.213 21.616 120.013 20.816 121.037 20.256C122.061 19.696 123.237 19.416 124.565 19.416C125.861 19.416 127.013 19.688 128.021 20.232C129.029 20.776 129.813 21.552 130.373 22.56C130.949 23.568 131.237 24.744 131.237 26.088ZM127.037 25.008C127.037 24.304 126.797 23.744 126.317 23.328C125.837 22.912 125.237 22.704 124.517 22.704C123.829 22.704 123.245 22.904 122.765 23.304C122.301 23.704 122.013 24.272 121.901 25.008H127.037ZM143.506 21.84C143.986 21.104 144.586 20.528 145.306 20.112C146.026 19.68 146.826 19.464 147.706 19.464V23.808H146.578C145.554 23.808 144.786 24.032 144.274 24.48C143.762 24.912 143.506 25.68 143.506 26.784V33H139.402V19.608H143.506V21.84ZM159.772 21.84C160.252 21.104 160.852 20.528 161.572 20.112C162.292 19.68 163.092 19.464 163.972 19.464V23.808H162.844C161.82 23.808 161.052 24.032 160.54 24.48C160.028 24.912 159.772 25.68 159.772 26.784V33H155.668V19.608H159.772V21.84ZM171.117 26.28C171.117 24.904 171.373 23.696 171.885 22.656C172.413 21.616 173.125 20.816 174.021 20.256C174.917 19.696 175.917 19.416 177.021 19.416C177.965 19.416 178.789 19.608 179.493 19.992C180.213 20.376 180.765 20.88 181.149 21.504V19.608H185.253V33H181.149V31.104C180.749 31.728 180.189 32.232 179.469 32.616C178.765 33 177.941 33.192 176.997 33.192C175.909 33.192 174.917 32.912 174.021 32.352C173.125 31.776 172.413 30.968 171.885 29.928C171.373 28.872 171.117 27.656 171.117 26.28ZM181.149 26.304C181.149 25.28 180.861 24.472 180.285 23.88C179.725 23.288 179.037 22.992 178.221 22.992C177.405 22.992 176.709 23.288 176.133 23.88C175.573 24.456 175.293 25.256 175.293 26.28C175.293 27.304 175.573 28.12 176.133 28.728C176.709 29.32 177.405 29.616 178.221 29.616C179.037 29.616 179.725 29.32 180.285 28.728C180.861 28.136 181.149 27.328 181.149 26.304ZM211.31 19.464C212.974 19.464 214.294 19.968 215.27 20.976C216.262 21.984 216.758 23.384 216.758 25.176V33H212.678V25.728C212.678 24.864 212.446 24.2 211.982 23.736C211.534 23.256 210.91 23.016 210.11 23.016C209.31 23.016 208.678 23.256 208.214 23.736C207.766 24.2 207.542 24.864 207.542 25.728V33H203.462V25.728C203.462 24.864 203.23 24.2 202.766 23.736C202.318 23.256 201.694 23.016 200.894 23.016C200.094 23.016 199.462 23.256 198.998 23.736C198.55 24.2 198.326 24.864 198.326 25.728V33H194.222V19.608H198.326V21.288C198.742 20.728 199.286 20.288 199.958 19.968C200.63 19.632 201.39 19.464 202.238 19.464C203.246 19.464 204.142 19.68 204.926 20.112C205.726 20.544 206.35 21.16 206.798 21.96C207.262 21.224 207.894 20.624 208.694 20.16C209.494 19.696 210.366 19.464 211.31 19.464ZM238.253 26.088C238.253 26.472 238.229 26.872 238.181 27.288H228.893C228.957 28.12 229.221 28.76 229.685 29.208C230.165 29.64 230.749 29.856 231.437 29.856C232.461 29.856 233.173 29.424 233.573 28.56H237.941C237.717 29.44 237.309 30.232 236.717 30.936C236.141 31.64 235.413 32.192 234.533 32.592C233.653 32.992 232.669 33.192 231.581 33.192C230.269 33.192 229.101 32.912 228.077 32.352C227.053 31.792 226.253 30.992 225.677 29.952C225.101 28.912 224.813 27.696 224.813 26.304C224.813 24.912 225.093 23.696 225.653 22.656C226.229 21.616 227.029 20.816 228.053 20.256C229.077 19.696 230.253 19.416 231.581 19.416C232.877 19.416 234.029 19.688 235.037 20.232C236.045 20.776 236.829 21.552 237.389 22.56C237.965 23.568 238.253 24.744 238.253 26.088ZM234.053 25.008C234.053 24.304 233.813 23.744 233.333 23.328C232.853 22.912 232.253 22.704 231.533 22.704C230.845 22.704 230.261 22.904 229.781 23.304C229.317 23.704 229.029 24.272 228.917 25.008H234.053ZM254.578 19.464C256.146 19.464 257.394 19.976 258.322 21C259.266 22.008 259.738 23.4 259.738 25.176V33H255.658V25.728C255.658 24.832 255.426 24.136 254.962 23.64C254.498 23.144 253.874 22.896 253.09 22.896C252.306 22.896 251.682 23.144 251.218 23.64C250.754 24.136 250.522 24.832 250.522 25.728V33H246.418V19.608H250.522V21.384C250.938 20.792 251.498 20.328 252.202 19.992C252.906 19.64 253.698 19.464 254.578 19.464ZM276.054 29.52V33H273.966C272.478 33 271.318 32.64 270.486 31.92C269.654 31.184 269.238 29.992 269.238 28.344V23.016H267.606V19.608H269.238V16.344H273.342V19.608H276.03V23.016H273.342V28.392C273.342 28.792 273.438 29.08 273.63 29.256C273.822 29.432 274.142 29.52 274.59 29.52H276.054ZM283.524 26.28C283.524 24.904 283.78 23.696 284.292 22.656C284.82 21.616 285.532 20.816 286.428 20.256C287.324 19.696 288.324 19.416 289.428 19.416C290.372 19.416 291.196 19.608 291.9 19.992C292.62 20.376 293.172 20.88 293.556 21.504V19.608H297.66V33H293.556V31.104C293.156 31.728 292.596 32.232 291.876 32.616C291.172 33 290.348 33.192 289.404 33.192C288.316 33.192 287.324 32.912 286.428 32.352C285.532 31.776 284.82 30.968 284.292 29.928C283.78 28.872 283.524 27.656 283.524 26.28ZM293.556 26.304C293.556 25.28 293.268 24.472 292.692 23.88C292.132 23.288 291.444 22.992 290.628 22.992C289.812 22.992 289.116 23.288 288.54 23.88C287.98 24.456 287.7 25.256 287.7 26.28C287.7 27.304 287.98 28.12 288.54 28.728C289.116 29.32 289.812 29.616 290.628 29.616C291.444 29.616 292.132 29.32 292.692 28.728C293.268 28.136 293.556 27.328 293.556 26.304ZM312.077 33.192C310.909 33.192 309.869 32.992 308.957 32.592C308.045 32.192 307.325 31.648 306.797 30.96C306.269 30.256 305.973 29.472 305.909 28.608H309.965C310.013 29.072 310.229 29.448 310.613 29.736C310.997 30.024 311.469 30.168 312.029 30.168C312.541 30.168 312.933 30.072 313.205 29.88C313.493 29.672 313.637 29.408 313.637 29.088C313.637 28.704 313.437 28.424 313.037 28.248C312.637 28.056 311.989 27.848 311.093 27.624C310.133 27.4 309.333 27.168 308.693 26.928C308.053 26.672 307.501 26.28 307.037 25.752C306.573 25.208 306.341 24.48 306.341 23.568C306.341 22.8 306.549 22.104 306.965 21.48C307.397 20.84 308.021 20.336 308.837 19.968C309.669 19.6 310.653 19.416 311.789 19.416C313.469 19.416 314.789 19.832 315.749 20.664C316.725 21.496 317.285 22.6 317.429 23.976H313.637C313.573 23.512 313.365 23.144 313.013 22.872C312.677 22.6 312.229 22.464 311.669 22.464C311.189 22.464 310.821 22.56 310.565 22.752C310.309 22.928 310.181 23.176 310.181 23.496C310.181 23.88 310.381 24.168 310.781 24.36C311.197 24.552 311.837 24.744 312.701 24.936C313.693 25.192 314.501 25.448 315.125 25.704C315.749 25.944 316.293 26.344 316.757 26.904C317.237 27.448 317.485 28.184 317.501 29.112C317.501 29.896 317.277 30.6 316.829 31.224C316.397 31.832 315.765 32.312 314.933 32.664C314.117 33.016 313.165 33.192 312.077 33.192Z" fill="white"/>
<defs>
<linearGradient id="paint0_linear_205_7" x1="334" y1="25" x2="1.50111e-06" y2="25" gradientUnits="userSpaceOnUse">
<stop stop-color="#FF0000" stop-opacity="0.5"/>
<stop offset="1" stop-color="#181818" stop-opacity="0"/>
</linearGradient>
</defs>
</svg>
