<svg width="334" height="50" viewBox="0 0 334 50" fill="none" xmlns="http://www.w3.org/2000/svg">
<rect width="334" height="50" fill="url(#paint0_linear_205_7)"/>
<path d="M27.456 16.152V19.44H20.592V22.992H25.728V26.184H20.592V33H16.488V16.152H27.456ZM48.237 26.088C48.237 26.472 48.213 26.872 48.165 27.288H38.877C38.941 28.12 39.205 28.76 39.669 29.208C40.149 29.64 40.733 29.856 41.421 29.856C42.445 29.856 43.157 29.424 43.557 28.56H47.925C47.701 29.44 47.293 30.232 46.701 30.936C46.125 31.64 45.397 32.192 44.517 32.592C43.637 32.992 42.653 33.192 41.565 33.192C40.253 33.192 39.085 32.912 38.061 32.352C37.037 31.792 36.237 30.992 35.661 29.952C35.085 28.912 34.797 27.696 34.797 26.304C34.797 24.912 35.077 23.696 35.637 22.656C36.213 21.616 37.013 20.816 38.037 20.256C39.061 19.696 40.237 19.416 41.565 19.416C42.861 19.416 44.013 19.688 45.021 20.232C46.029 20.776 46.813 21.552 47.373 22.56C47.949 23.568 48.237 24.744 48.237 26.088ZM44.037 25.008C44.037 24.304 43.797 23.744 43.317 23.328C42.837 22.912 42.237 22.704 41.517 22.704C40.829 22.704 40.245 22.904 39.765 23.304C39.301 23.704 39.013 24.272 38.901 25.008H44.037ZM60.5061 21.84C60.9861 21.104 61.5861 20.528 62.3061 20.112C63.0261 19.68 63.8261 19.464 64.7061 19.464V23.808H63.5781C62.5541 23.808 61.7861 24.032 61.2741 24.48C60.7621 24.912 60.5061 25.68 60.5061 26.784V33H56.4021V19.608H60.5061V21.84ZM76.7717 21.84C77.2517 21.104 77.8517 20.528 78.5717 20.112C79.2917 19.68 80.0917 19.464 80.9717 19.464V23.808H79.8437C78.8197 23.808 78.0517 24.032 77.5397 24.48C77.0277 24.912 76.7717 25.68 76.7717 26.784V33H72.6677V19.608H76.7717V21.84ZM88.1173 26.28C88.1173 24.904 88.3733 23.696 88.8853 22.656C89.4133 21.616 90.1253 20.816 91.0213 20.256C91.9173 19.696 92.9173 19.416 94.0213 19.416C94.9653 19.416 95.7893 19.608 96.4933 19.992C97.2133 20.376 97.7653 20.88 98.1493 21.504V19.608H102.253V33H98.1493V31.104C97.7493 31.728 97.1893 32.232 96.4693 32.616C95.7653 33 94.9413 33.192 93.9973 33.192C92.9093 33.192 91.9173 32.912 91.0213 32.352C90.1253 31.776 89.4133 30.968 88.8853 29.928C88.3733 28.872 88.1173 27.656 88.1173 26.28ZM98.1493 26.304C98.1493 25.28 97.8613 24.472 97.2853 23.88C96.7253 23.288 96.0373 22.992 95.2213 22.992C94.4053 22.992 93.7093 23.288 93.1333 23.88C92.5733 24.456 92.2933 25.256 92.2933 26.28C92.2933 27.304 92.5733 28.12 93.1333 28.728C93.7093 29.32 94.4053 29.616 95.2213 29.616C96.0373 29.616 96.7253 29.32 97.2853 28.728C97.8613 28.136 98.1493 27.328 98.1493 26.304ZM128.31 19.464C129.974 19.464 131.294 19.968 132.27 20.976C133.262 21.984 133.758 23.384 133.758 25.176V33H129.678V25.728C129.678 24.864 129.446 24.2 128.982 23.736C128.534 23.256 127.91 23.016 127.11 23.016C126.31 23.016 125.678 23.256 125.214 23.736C124.766 24.2 124.542 24.864 124.542 25.728V33H120.462V25.728C120.462 24.864 120.23 24.2 119.766 23.736C119.318 23.256 118.694 23.016 117.894 23.016C117.094 23.016 116.462 23.256 115.998 23.736C115.55 24.2 115.326 24.864 115.326 25.728V33H111.222V19.608H115.326V21.288C115.742 20.728 116.286 20.288 116.958 19.968C117.63 19.632 118.39 19.464 119.238 19.464C120.246 19.464 121.142 19.68 121.926 20.112C122.726 20.544 123.35 21.16 123.798 21.96C124.262 21.224 124.894 20.624 125.694 20.16C126.494 19.696 127.366 19.464 128.31 19.464ZM155.253 26.088C155.253 26.472 155.229 26.872 155.181 27.288H145.893C145.957 28.12 146.221 28.76 146.685 29.208C147.165 29.64 147.749 29.856 148.437 29.856C149.461 29.856 150.173 29.424 150.573 28.56H154.941C154.717 29.44 154.309 30.232 153.717 30.936C153.141 31.64 152.413 32.192 151.533 32.592C150.653 32.992 149.669 33.192 148.581 33.192C147.269 33.192 146.101 32.912 145.077 32.352C144.053 31.792 143.253 30.992 142.677 29.952C142.101 28.912 141.813 27.696 141.813 26.304C141.813 24.912 142.093 23.696 142.653 22.656C143.229 21.616 144.029 20.816 145.053 20.256C146.077 19.696 147.253 19.416 148.581 19.416C149.877 19.416 151.029 19.688 152.037 20.232C153.045 20.776 153.829 21.552 154.389 22.56C154.965 23.568 155.253 24.744 155.253 26.088ZM151.053 25.008C151.053 24.304 150.813 23.744 150.333 23.328C149.853 22.912 149.253 22.704 148.533 22.704C147.845 22.704 147.261 22.904 146.781 23.304C146.317 23.704 146.029 24.272 145.917 25.008H151.053ZM171.578 19.464C173.146 19.464 174.394 19.976 175.322 21C176.266 22.008 176.738 23.4 176.738 25.176V33H172.658V25.728C172.658 24.832 172.426 24.136 171.962 23.64C171.498 23.144 170.874 22.896 170.09 22.896C169.306 22.896 168.682 23.144 168.218 23.64C167.754 24.136 167.522 24.832 167.522 25.728V33H163.418V19.608H167.522V21.384C167.938 20.792 168.498 20.328 169.202 19.992C169.906 19.64 170.698 19.464 171.578 19.464ZM193.054 29.52V33H190.966C189.478 33 188.318 32.64 187.486 31.92C186.654 31.184 186.238 29.992 186.238 28.344V23.016H184.606V19.608H186.238V16.344H190.342V19.608H193.03V23.016H190.342V28.392C190.342 28.792 190.438 29.08 190.63 29.256C190.822 29.432 191.142 29.52 191.59 29.52H193.054ZM200.524 26.28C200.524 24.904 200.78 23.696 201.292 22.656C201.82 21.616 202.532 20.816 203.428 20.256C204.324 19.696 205.324 19.416 206.428 19.416C207.372 19.416 208.196 19.608 208.9 19.992C209.62 20.376 210.172 20.88 210.556 21.504V19.608H214.66V33H210.556V31.104C210.156 31.728 209.596 32.232 208.876 32.616C208.172 33 207.348 33.192 206.404 33.192C205.316 33.192 204.324 32.912 203.428 32.352C202.532 31.776 201.82 30.968 201.292 29.928C200.78 28.872 200.524 27.656 200.524 26.28ZM210.556 26.304C210.556 25.28 210.268 24.472 209.692 23.88C209.132 23.288 208.444 22.992 207.628 22.992C206.812 22.992 206.116 23.288 205.54 23.88C204.98 24.456 204.7 25.256 204.7 26.28C204.7 27.304 204.98 28.12 205.54 28.728C206.116 29.32 206.812 29.616 207.628 29.616C208.444 29.616 209.132 29.32 209.692 28.728C210.268 28.136 210.556 27.328 210.556 26.304ZM229.077 33.192C227.909 33.192 226.869 32.992 225.957 32.592C225.045 32.192 224.325 31.648 223.797 30.96C223.269 30.256 222.973 29.472 222.909 28.608H226.965C227.013 29.072 227.229 29.448 227.613 29.736C227.997 30.024 228.469 30.168 229.029 30.168C229.541 30.168 229.933 30.072 230.205 29.88C230.493 29.672 230.637 29.408 230.637 29.088C230.637 28.704 230.437 28.424 230.037 28.248C229.637 28.056 228.989 27.848 228.093 27.624C227.133 27.4 226.333 27.168 225.693 26.928C225.053 26.672 224.501 26.28 224.037 25.752C223.573 25.208 223.341 24.48 223.341 23.568C223.341 22.8 223.549 22.104 223.965 21.48C224.397 20.84 225.021 20.336 225.837 19.968C226.669 19.6 227.653 19.416 228.789 19.416C230.469 19.416 231.789 19.832 232.749 20.664C233.725 21.496 234.285 22.6 234.429 23.976H230.637C230.573 23.512 230.365 23.144 230.013 22.872C229.677 22.6 229.229 22.464 228.669 22.464C228.189 22.464 227.821 22.56 227.565 22.752C227.309 22.928 227.181 23.176 227.181 23.496C227.181 23.88 227.381 24.168 227.781 24.36C228.197 24.552 228.837 24.744 229.701 24.936C230.693 25.192 231.501 25.448 232.125 25.704C232.749 25.944 233.293 26.344 233.757 26.904C234.237 27.448 234.485 28.184 234.501 29.112C234.501 29.896 234.277 30.6 233.829 31.224C233.397 31.832 232.765 32.312 231.933 32.664C231.117 33.016 230.165 33.192 229.077 33.192Z" fill="white"/>
<defs>
<linearGradient id="paint0_linear_205_7" x1="334" y1="25" x2="1.50111e-06" y2="25" gradientUnits="userSpaceOnUse">
<stop stop-color="#181818" stop-opacity="0"/>
<stop offset="1" stop-color="#FF0000" stop-opacity="0.5"/>
</linearGradient>
</defs>
</svg>
